<svg width="200" height="48" viewBox="0 0 200 48" fill="none" xmlns="http://www.w3.org/2000/svg">
  <path d="M8 14C8 10.6863 10.6863 8 14 8H26C29.3137 8 32 10.6863 32 14V34C32 37.3137 29.3137 40 26 40H14C10.6863 40 8 37.3137 8 34V14Z" stroke="currentColor" stroke-width="2"/>
  <path d="M13 18C13 16.3431 14.3431 15 16 15H24C25.6569 15 27 16.3431 27 18V24C27 25.6569 25.6569 27 24 27H16C14.3431 27 13 25.6569 13 24V18Z" fill="currentColor"/>
  <circle cx="20" cy="21" r="2.5" fill="#0F0E0C"/>
  <path d="M5 13L7 10M35 13L33 10" stroke="currentColor" stroke-width="2" stroke-linecap="round"/>
  <text x="48" y="32" font-family="Georgia, serif" font-size="24" font-weight="600" letter-spacing="2" fill="currentColor">AURIC</text>
</svg>
